<svg width="100" height="140" viewBox="0 0 100 140" fill="none" xmlns="http://www.w3.org/2000/svg">
<rect x="1.5" y="1.5" width="97" height="137" rx="5.5" fill="#60D0DF" stroke="#A7E7F0" stroke-width="3"/>
<path d="M42.5819 70.2731L42.5818 70.2731C40.533 67.4795 39.265 63.859 39.265 60.8399C39.265 54.9208 44.0809 50.105 50 50.105C55.9191 50.105 60.735 54.9208 60.735 60.8399C60.7351 63.9232 59.4641 67.4397 57.4701 70.1851C55.4721 72.9361 52.7912 74.8574 50 74.8574C47.4495 74.8574 44.7385 73.2142 42.5819 70.2731ZM50 46.6283C42.1634 46.6283 35.7883 53.0034 35.7883 60.8399C35.7883 64.6356 37.2826 68.9263 39.7783 72.3292C42.602 76.1795 46.2283 78.3341 50 78.3341C53.7718 78.3341 57.3979 76.1797 60.2219 72.3292C62.7176 68.9263 64.2118 64.6356 64.2118 60.8399C64.2118 53.0033 57.8366 46.6283 50 46.6283Z" fill="white" stroke="white" stroke-width="0.5"/>
<path d="M55.5896 83.346L55.46 83.1322L55.5896 83.346C57.1315 82.4116 59.0354 82.5348 60.3296 83.6315C63.7361 86.518 65.7722 90.6796 65.9698 95.1176C61.3521 98.064 55.8722 99.7733 50 99.7733C44.1276 99.7731 38.6477 98.0638 34.03 95.1172C34.2276 90.6826 36.2524 86.533 39.6563 83.6424C40.9576 82.5373 42.8668 82.4102 44.4098 83.3452C46.2045 84.4328 48.0862 84.9886 50.0006 84.9886C51.9145 84.9886 53.7957 84.433 55.5896 83.346ZM37.4057 80.9925L37.5573 81.171L37.4057 80.9925C33.8407 84.0199 31.5172 88.1825 30.7848 92.7246C24.3302 87.2582 20.2267 79.0994 20.2267 70.0002C20.2267 53.5831 33.5833 40.2267 50 40.2267C66.4169 40.2267 79.7733 53.5831 79.7733 70C79.7733 79.1005 75.6687 87.2603 69.2126 92.7267C68.4781 88.1772 66.1457 84.0029 62.5772 80.979L62.4156 81.1697L62.5772 80.979C60.1324 78.9076 56.5994 78.6688 53.7878 80.3727C51.2928 81.8844 48.7073 81.8842 46.2116 80.3719C43.3964 78.6657 39.8572 78.9109 37.4057 80.9925ZM50 36.75C31.6658 36.75 16.75 51.6656 16.75 70C16.75 88.3342 31.6656 103.25 50 103.25C68.3344 103.25 83.25 88.3344 83.25 70C83.25 51.6656 68.3342 36.75 50 36.75Z" fill="white" stroke="white" stroke-width="0.5"/>
</svg>
