<svg width="100" height="140" viewBox="0 0 100 140" fill="none" xmlns="http://www.w3.org/2000/svg">
<rect x="2.5" y="2.5" width="95" height="135" rx="19.5" fill="#DDDF60" stroke="#F4F5AE" stroke-width="5"/>
<path d="M32.8438 56.1625C32.8352 56.3643 32.868 56.5658 32.9402 56.7545C33.0124 56.9432 33.1224 57.1151 33.2635 57.2597C33.4046 57.4043 33.5737 57.5185 33.7606 57.5953C33.9474 57.6721 34.148 57.7098 34.35 57.7063H39.5063C40.3688 57.7063 41.0563 57 41.1688 56.1438C41.7313 52.0438 44.5438 49.0563 49.5563 49.0563C53.8438 49.0563 57.7688 51.2 57.7688 56.3563C57.7688 60.325 55.4313 62.15 51.7375 64.925C47.5313 67.9813 44.2 71.55 44.4375 77.3438L44.4563 78.7C44.4628 79.1101 44.6303 79.5011 44.9226 79.7887C45.215 80.0764 45.6086 80.2376 46.0188 80.2375H51.0875C51.5019 80.2375 51.8993 80.0729 52.1924 79.7799C52.4854 79.4868 52.65 79.0894 52.65 78.675V78.0188C52.65 73.5313 54.3563 72.225 58.9625 68.7313C62.7688 65.8375 66.7375 62.625 66.7375 55.8813C66.7375 46.4375 58.7625 41.875 50.0313 41.875C42.1125 41.875 33.4375 45.5625 32.8438 56.1625V56.1625ZM42.575 92.1813C42.575 95.5125 45.2313 97.975 48.8875 97.975C52.6938 97.975 55.3125 95.5125 55.3125 92.1813C55.3125 88.7313 52.6875 86.3063 48.8813 86.3063C45.2313 86.3063 42.575 88.7313 42.575 92.1813Z" fill="white"/>
</svg>
