<svg width="100" height="140" viewBox="0 0 100 140" fill="none" xmlns="http://www.w3.org/2000/svg">
<rect x="1.5" y="1.5" width="97" height="137" rx="5.5" fill="#60DF93" stroke="#9FF5C1" stroke-width="3"/>
<g clip-path="url(#clip0_2_67)">
<path d="M53 97.85H22.15V42.15H60.85V49V49.15H61H63H63.15V49V41C63.15 40.6659 63.038 40.3759 62.8311 40.1689C62.6241 39.962 62.3341 39.85 62 39.85H21C20.6659 39.85 20.3759 39.962 20.1689 40.1689C19.962 40.3759 19.85 40.6659 19.85 41V99C19.85 99.3341 19.962 99.6241 20.1689 99.8311C20.3759 100.038 20.6659 100.15 21 100.15H53H53.15V100V98V97.85H53Z" fill="white" stroke="white" stroke-width="0.3"/>
<path d="M58.9658 54.6329L58.9656 54.6328L58.9619 54.6414L56.173 61.2152C56.0738 61.3177 55.9936 61.4263 55.9379 61.5516C55.8781 61.6862 55.85 61.8325 55.85 62V93V99C55.85 99.3341 55.962 99.6241 56.1689 99.8311C56.3759 100.038 56.6659 100.15 57 100.15H63C63.3341 100.15 63.6241 100.038 63.8311 99.8311C64.038 99.6241 64.15 99.3341 64.15 99V93V62C64.15 61.8348 64.1227 61.6653 64.0643 61.5193C64.0138 61.393 63.9349 61.2723 63.8187 61.1956L61.0425 54.6517C60.9147 54.1679 60.4351 53.95 60 53.95C59.7738 53.95 59.5691 54.007 59.3918 54.1252C59.2154 54.2428 59.0747 54.4151 58.9658 54.6329ZM61.85 63.15V91.85H58.15V63.15H61.85ZM58.7275 60.85L60 57.8808L61.2725 60.85H58.7275ZM58.15 97.85V94.15H61.85V97.85H58.15Z" fill="white" stroke="white" stroke-width="0.3"/>
<path d="M79 77.85H68C67.6659 77.85 67.3759 77.962 67.1689 78.1689C66.962 78.3759 66.85 78.6659 66.85 79V99C66.85 99.3341 66.962 99.6241 67.1689 99.8311C67.3759 100.038 67.6659 100.15 68 100.15H79C79.3341 100.15 79.6241 100.038 79.8311 99.8311C80.038 99.6241 80.15 99.3341 80.15 99V79C80.15 78.6659 80.038 78.3759 79.8311 78.1689C79.6241 77.962 79.3341 77.85 79 77.85ZM77.85 80.15V84.85H69.15V80.15H77.85ZM69.15 97.85V87.15H77.85V97.85H69.15Z" fill="white" stroke="white" stroke-width="0.3"/>
<path d="M47.15 51C47.15 47.6172 44.3828 44.85 41 44.85C37.6172 44.85 34.85 47.6172 34.85 51C34.85 54.3828 37.6172 57.15 41 57.15C44.3828 57.15 47.15 54.3828 47.15 51ZM37.15 51C37.15 48.8828 38.8828 47.15 41 47.15C43.1172 47.15 44.85 48.8828 44.85 51C44.85 53.1172 43.1172 54.85 41 54.85C38.8828 54.85 37.15 53.1172 37.15 51Z" fill="white" stroke="white" stroke-width="0.3"/>
<path d="M35 59.85H34.85V60V62V62.15H35H47H47.15V62V60V59.85H47H35Z" fill="white" stroke="white" stroke-width="0.3"/>
<path d="M35 64.85H34.85V65V67V67.15H35H47H47.15V67V65V64.85H47H35Z" fill="white" stroke="white" stroke-width="0.3"/>
<path d="M26 70.85H25.85V71V73V73.15H26H41H41.15V73V71V70.85H41H26Z" fill="white" stroke="white" stroke-width="0.3"/>
<path d="M26 75.85H25.85V76V78V78.15H26H52H52.15V78V76V75.85H52H26Z" fill="white" stroke="white" stroke-width="0.3"/>
<path d="M26 80.85H25.85V81V83V83.15H26H52H52.15V83V81V80.85H52H26Z" fill="white" stroke="white" stroke-width="0.3"/>
<path d="M26 85.85H25.85V86V88V88.15H26H34H34.15V88V86V85.85H34H26Z" fill="white" stroke="white" stroke-width="0.3"/>
<path d="M26 90.85H25.85V91V93V93.15H26H37H37.15V93V91V90.85H37H26Z" fill="white" stroke="white" stroke-width="0.3"/>
<path d="M41 85.85H40.85V86V88V88.15H41H49H49.15V88V86V85.85H49H41Z" fill="white" stroke="white" stroke-width="0.3"/>
<path d="M41 90.85H40.85V91V93V93.15H41H52H52.15V93V91V90.85H52H41Z" fill="white" stroke="white" stroke-width="0.3"/>
</g>
<defs>
<clipPath id="clip0_2_67">
<rect width="60" height="60" fill="white" transform="translate(20 40)"/>
</clipPath>
</defs>
</svg>
