<svg width="100" height="140" viewBox="0 0 100 140" fill="none" xmlns="http://www.w3.org/2000/svg">
<rect x="1.5" y="1.5" width="97" height="137" rx="5.5" fill="#BE60DF" stroke="#D09DE2" stroke-width="3"/>
<path d="M64.3269 75.7692C61.8269 75.7692 59.6154 76.8269 58.0769 78.4615L44.0385 71.4423C44.1346 70.9615 44.1346 70.4808 44.1346 69.9038C44.1346 69.4231 44.0385 68.8462 44.0385 68.3654L58.0769 61.3462C59.6154 63.0769 61.9231 64.1346 64.4231 64.1346C69.2308 64.1346 73.0769 60.2885 73.0769 55.4808C73.0769 50.6731 69.2308 46.8269 64.4231 46.8269C59.6154 46.8269 55.7692 50.6731 55.7692 55.4808C55.7692 55.6731 55.7692 55.8654 55.7692 56.0577L41.25 63.3654C39.6154 62.1154 37.6923 61.3462 35.4808 61.3462C30.6731 61.3462 26.8269 65.1923 26.8269 70C26.8269 74.8077 30.6731 78.6538 35.4808 78.6538C37.6923 78.6538 39.6154 77.8846 41.1538 76.5385L55.6731 83.75C55.6731 83.9423 55.6731 84.1346 55.6731 84.4231C55.6731 89.2308 59.5192 93.0769 64.3269 93.0769C69.1346 93.0769 72.9808 89.2308 72.9808 84.4231C72.9808 79.6154 69.1346 75.7692 64.3269 75.7692Z" fill="white"/>
</svg>
