<svg width="100" height="140" viewBox="0 0 100 140" fill="none" xmlns="http://www.w3.org/2000/svg">
<rect x="1.5" y="1.5" width="97" height="137" rx="5.5" fill="#DF7760" stroke="#E8A698" stroke-width="3"/>
<g clip-path="url(#clip0_2_34)">
<path d="M57.2981 49.3663C58.7771 49.8847 59.5398 51.4598 59.0014 52.8842L45.3548 88.9933C44.8165 90.4177 43.181 91.1522 41.7019 90.6337C40.2229 90.1153 39.4602 88.5402 39.9986 87.1157L53.6452 51.0067C54.1835 49.5823 55.819 48.8478 57.2981 49.3663ZM27.8805 70.666L37.9568 80.3701C39.0698 81.442 39.0698 83.1799 37.9568 84.2518C36.8438 85.3237 35.0393 85.3237 33.9263 84.2518L21.8347 72.6068C20.7218 71.5349 20.7218 69.797 21.8347 68.7252L33.9263 57.0802C35.0393 56.0083 36.8438 56.0083 37.9568 57.0802C39.0698 58.1521 39.0698 59.89 37.9568 60.9618L27.8805 70.666ZM71.1195 70.666L61.0432 60.9618C59.9302 59.89 59.9302 58.1521 61.0432 57.0802C62.1562 56.0083 63.9607 56.0083 65.0737 57.0802L77.1653 68.7252C78.2782 69.797 78.2782 71.5349 77.1653 72.6068L65.0737 84.2518C63.9607 85.3237 62.1562 85.3237 61.0432 84.2518C59.9302 83.1799 59.9302 81.442 61.0432 80.3701L71.1195 70.666Z" fill="white"/>
</g>
<defs>
<clipPath id="clip0_2_34">
<rect width="57" height="52" fill="white" transform="translate(21 44)"/>
</clipPath>
</defs>
</svg>
